<svg id="Logo" xmlns="http://www.w3.org/2000/svg" viewBox="0 0 1120 300"><defs><style>.cls-1{font-size:200px;font-family:Oswald-Bold, Oswald;font-weight:700;}</style></defs><path d="M186.93,238.64v2.78a20.26,20.26,0,0,1-19.34,20.2c-3,11.51-18.89,20.37-38.24,20.38s-35.3-8.85-38.26-20.38a20.23,20.23,0,0,1-19.33-20.19l0-2.78ZM71.77,229.85H186.93l0-11.42H71.77v11.41Zm156.86-113A97.52,97.52,0,0,1,186.93,197v12.63H172.68a18.51,18.51,0,0,0,6.64-14.27,19.19,19.19,0,0,0-38.38,0c0,5.78,2.62,10.89,6.64,15.15H71.77V197A100.43,100.43,0,0,1,37.7,152.76a28.63,28.63,0,0,0,4.36.45,30.36,30.36,0,0,0,0-60.72,30,30,0,0,0-8.32,1.3A98.68,98.68,0,0,1,193.61,41.47a40.46,40.46,0,1,0,30.15,44.89A98.2,98.2,0,0,1,228.63,116.87Zm-93.78,49a11,11,0,1,0-11,11A11,11,0,0,0,134.85,165.86Zm0-50.59a26.15,26.15,0,1,0-26.15,26.14A26.15,26.15,0,0,0,134.85,115.27Zm1.69-58.19a20.25,20.25,0,1,0-20.25,20.24A20.25,20.25,0,0,0,136.54,57.08Zm33.73,95.29a14.34,14.34,0,1,0-14.34,14.34A14.34,14.34,0,0,0,170.27,152.37ZM215,142.25a14.34,14.34,0,1,0-14.34,14.33A14.34,14.34,0,0,0,215,142.25Z"/><text class="cls-1" transform="translate(241.78 230.09)">Creahaven</text></svg>