<?xml version="1.0" encoding="utf-8"?>
<!-- Generator: Adobe Illustrator 26.1.0, SVG Export Plug-In . SVG Version: 6.00 Build 0)  -->
<svg version="1.1" id="Logo_Orange" xmlns="http://www.w3.org/2000/svg" xmlns:xlink="http://www.w3.org/1999/xlink" x="0px"
	 y="0px" viewBox="0 0 1120 300" style="enable-background:new 0 0 1120 300;" xml:space="preserve">

	<style type="text/css">
		.st0{fill:#D98116;}
		.st1{font-family:'Oswald-Bold';}
		.st2{font-size:12.5rem;}
	</style>
	<path class="st0" d="M164.6,222.3v2.3c0,8.8-6.9,16-15.7,16.4c-2.4,9.3-15.3,16.5-31,16.5s-28.6-7.2-31-16.5
		c-8.8-0.4-15.7-7.6-15.7-16.4v-2.3L164.6,222.3z M71.2,215.2h93.4v-9.3H71.2V215.2L71.2,215.2z M198.4,123.6
		c0,25.9-12.6,50.2-33.8,65v10.2H153c3.4-2.9,5.4-7.1,5.4-11.6c0-8.6-7-15.6-15.6-15.6s-15.6,7-15.6,15.6l0,0c0,4.7,2.1,8.8,5.4,12.3
		H71.2v-11c-12.4-9.1-22-21.5-27.6-35.9c1.2,0.2,2.3,0.3,3.5,0.4c13.6,0,24.6-11,24.6-24.6s-11-24.6-24.6-24.6
		c-2.3,0-4.6,0.4-6.7,1.1c10.3-43,53.4-69.5,96.4-59.3c12.3,2.9,23.6,8.7,33.2,16.8c-17.6-4.4-35.4,6.2-39.8,23.8
		c-4.4,17.6,6.2,35.4,23.8,39.8c17.6,4.4,35.4-6.2,39.8-23.8c0.3-1.1,0.5-2.3,0.7-3.4C197,106.8,198.4,115.2,198.4,123.6L198.4,123.6
		z M122.3,163.3c0-4.9-4-8.9-8.9-8.9c-4.9,0-8.9,4-8.9,8.9c0,4.9,4,8.9,8.9,8.9C118.3,172.2,122.3,168.2,122.3,163.3L122.3,163.3z
		M122.3,122.3c0-11.7-9.5-21.2-21.2-21.2s-21.2,9.5-21.2,21.2c0,11.7,9.5,21.2,21.2,21.2c0,0,0,0,0,0
		C112.8,143.5,122.3,134,122.3,122.3L122.3,122.3z M123.7,75.1c0-9.1-7.3-16.4-16.4-16.4c-9.1,0-16.4,7.3-16.4,16.4
		c0,9.1,7.3,16.4,16.4,16.4c0,0,0,0,0,0C116.3,91.5,123.7,84.2,123.7,75.1L123.7,75.1z M151,152.4c0-6.4-5.2-11.6-11.6-11.6
		c-6.4,0-11.6,5.2-11.6,11.6c0,6.4,5.2,11.6,11.6,11.6c0,0,0,0,0,0C145.8,164,151,158.8,151,152.4L151,152.4z M187.3,144.2
		c0-6.4-5.2-11.6-11.6-11.6c-6.4,0-11.6,5.2-11.6,11.6c0,6.4,5.2,11.6,11.6,11.6c0,0,0,0,0,0C182.1,155.8,187.3,150.6,187.3,144.2z"
		/>
	<text transform="matrix(1 0 0 1 205.0382 232.397)" class="st0 st1 st2">Creahaven</text>
</svg>
