<?xml version="1.0" encoding="utf-8"?>
<!-- Generator: Adobe Illustrator 26.1.0, SVG Export Plug-In . SVG Version: 6.00 Build 0)  -->
<svg version="1.1" id="Logo" xmlns="http://www.w3.org/2000/svg" xmlns:xlink="http://www.w3.org/1999/xlink" x="0px" y="0px"
	 viewBox="0 0 1063 283.5" style="enable-background:new 0 0 1063 283.5;" xml:space="preserve">
<style type="text/css">
	.st0{fill:#FFFFFF;}
	.st1{font-family:'Oswald-Bold';}
	.st2{font-size:172.4308px;}
</style>
<path class="st0" d="M183.2,219v2.4c0,9.3-7.4,17-16.7,17.4c-2.6,9.9-16.3,17.6-33,17.6c-16.7,0-30.4-7.6-33-17.6
	c-9.3-0.4-16.7-8.1-16.7-17.4V219L183.2,219z M84,211.4h99.3v-9.8H84V211.4L84,211.4z M219.2,114c0.1,27.5-13.4,53.3-36,69.1V194
	H171c3.6-3,5.7-7.6,5.7-12.3c0-9.1-7.4-16.5-16.5-16.5c-9.1,0-16.5,7.4-16.5,16.5l0,0c0,5,2.3,9.4,5.7,13.1H84v-11.6
	c-13.2-9.7-23.4-22.9-29.4-38.1c1.2,0.2,2.5,0.4,3.8,0.4c14.5,0,26.2-11.7,26.2-26.2S72.8,93,58.3,93c-2.4,0-4.8,0.4-7.2,1.1
	c10.9-45.7,56.8-73.9,102.5-63c13,3.1,25.1,9.2,35.3,17.9c-18.7-4.7-37.6,6.6-42.4,25.3s6.6,37.6,25.3,42.4
	c18.7,4.7,37.6-6.6,42.4-25.3c0.3-1.2,0.5-2.4,0.7-3.7C217.8,96.2,219.2,105.1,219.2,114L219.2,114z M138.3,156.2
	c0-5.2-4.2-9.5-9.5-9.5s-9.5,4.2-9.5,9.5s4.2,9.5,9.5,9.5C134.1,165.7,138.3,161.5,138.3,156.2L138.3,156.2z M138.3,112.6
	c0-12.5-10.1-22.5-22.5-22.6s-22.5,10.1-22.6,22.5s10.1,22.5,22.5,22.6c0,0,0,0,0,0C128.2,135.1,138.3,125.1,138.3,112.6
	L138.3,112.6z M139.8,62.4c0-9.6-7.8-17.5-17.4-17.5s-17.5,7.8-17.5,17.4s7.8,17.5,17.4,17.5c0,0,0,0,0,0
	C132,79.9,139.8,72.1,139.8,62.4L139.8,62.4z M168.9,144.6c0-6.8-5.5-12.4-12.4-12.4c-6.8,0-12.4,5.5-12.4,12.4
	c0,6.8,5.5,12.4,12.4,12.4c0,0,0,0,0,0C163.3,157,168.9,151.4,168.9,144.6L168.9,144.6z M207.5,135.9c0-6.8-5.5-12.4-12.4-12.4
	c-6.8,0-12.4,5.5-12.4,12.4s5.5,12.4,12.4,12.4c0,0,0,0,0,0C201.9,148.2,207.4,142.7,207.5,135.9z"/>
<text transform="matrix(1 0 0 1 230.5475 211.6121)" class="st0 st1 st2">Creahaven</text>
</svg>
