<?xml version="1.0" encoding="utf-8"?>
<!-- Generator: Adobe Illustrator 26.1.0, SVG Export Plug-In . SVG Version: 6.00 Build 0)  -->
<svg version="1.1" id="Logo" xmlns="http://www.w3.org/2000/svg" xmlns:xlink="http://www.w3.org/1999/xlink" x="0px" y="0px"
	 viewBox="0 0 1063 283.5" style="enable-background:new 0 0 1063 283.5;" xml:space="preserve">
<style type="text/css">
	.st0{font-family:'Oswald-Bold';}
	.st1{font-size:172.4308px;}
</style>
<path d="M209.9,218.2v2.4c0,9.3-7.4,17-16.7,17.4c-2.6,9.9-16.3,17.6-33,17.6c-16.7,0-30.4-7.6-33-17.6c-9.3-0.4-16.7-8.1-16.7-17.4
	v-2.4L209.9,218.2z M110.6,210.6h99.3v-9.8h-99.3V210.6L110.6,210.6z M245.9,113.2c0.1,27.5-13.4,53.3-36,69.1v10.9h-12.3
	c3.6-3,5.7-7.6,5.7-12.3c0-9.1-7.4-16.5-16.5-16.5s-16.5,7.4-16.5,16.5l0,0c0,5,2.3,9.4,5.7,13.1h-65.4v-11.6
	c-13.2-9.7-23.4-22.9-29.4-38.1c1.2,0.2,2.5,0.4,3.8,0.4c14.5,0,26.2-11.7,26.2-26.2S99.5,92.2,85,92.2c-2.4,0-4.8,0.4-7.2,1.1
	c10.9-45.7,56.8-73.9,102.5-63c13,3.1,25.1,9.2,35.3,17.9c-18.7-4.7-37.6,6.6-42.4,25.3s6.6,37.6,25.3,42.4
	c18.7,4.7,37.6-6.6,42.4-25.3c0.3-1.2,0.5-2.4,0.7-3.7C244.4,95.4,245.9,104.3,245.9,113.2L245.9,113.2z M165,155.4
	c0-5.2-4.2-9.5-9.5-9.5s-9.5,4.2-9.5,9.5s4.2,9.5,9.5,9.5C160.8,164.9,165,160.7,165,155.4L165,155.4z M165,111.8
	c0-12.5-10.1-22.5-22.5-22.6c-12.5,0-22.5,10.1-22.6,22.5c0,12.5,10.1,22.5,22.5,22.6c0,0,0,0,0,0C154.9,134.3,165,124.3,165,111.8
	L165,111.8z M166.5,61.6c0-9.6-7.8-17.5-17.4-17.5c-9.6,0-17.5,7.8-17.5,17.4s7.8,17.5,17.4,17.5c0,0,0,0,0,0
	C158.6,79.1,166.4,71.3,166.5,61.6L166.5,61.6z M195.5,143.8c0-6.8-5.5-12.4-12.4-12.4c-6.8,0-12.4,5.5-12.4,12.4
	c0,6.8,5.5,12.4,12.4,12.4c0,0,0,0,0,0C190,156.1,195.5,150.6,195.5,143.8L195.5,143.8z M234.1,135.1c0-6.8-5.5-12.4-12.4-12.4
	c-6.8,0-12.4,5.5-12.4,12.4s5.5,12.4,12.4,12.4c0,0,0,0,0,0C228.6,147.4,234.1,141.9,234.1,135.1z"/>
<text transform="matrix(1 0 0 1 257.2006 210.7986)" class="st0 st1">Creahaven</text>
</svg>
