<?xml version="1.0" encoding="utf-8"?>
<!-- Generator: Adobe Illustrator 26.1.0, SVG Export Plug-In . SVG Version: 6.00 Build 0)  -->
<svg version="1.1" id="Logo_Orange" xmlns="http://www.w3.org/2000/svg" xmlns:xlink="http://www.w3.org/1999/xlink" x="0px"
	 y="0px" viewBox="0 0 1120 300" style="enable-background:new 0 0 1120 300;" xml:space="preserve">
<style type="text/css">
	.st0{fill:#D98116;}
	.st1{font-family:'Oswald-Bold';}
	.st2{font-size:9.6rem;}
</style>
<path class="st0" d="M194.4,231.8v2.6c0,10.1-7.9,18.4-18,18.8c-2.8,10.7-17.6,19-35.6,19s-32.9-8.2-35.6-19
	c-10.1-0.4-18-8.7-18-18.8v-2.6H194.4z M87.1,223.6h107.2V213H87.1V223.6L87.1,223.6z M233.2,118.4c0.1,29.7-14.4,57.6-38.8,74.6
	v11.8h-13.3c3.9-3.3,6.2-8.2,6.2-13.3c0-9.9-8-17.9-17.9-17.9s-17.9,8-17.9,17.9l0,0c0,5.4,2.4,10.1,6.2,14.1H87.1V193
	c-14.2-10.4-25.2-24.7-31.7-41.1c1.3,0.2,2.7,0.4,4.1,0.4c15.6,0,28.3-12.7,28.3-28.3S75.1,95.7,59.5,95.7c-2.6,0-5.2,0.4-7.7,1.2
	c11.8-49.4,61.3-79.8,110.7-68.1c14.1,3.4,27.1,10,38.2,19.3c-20.2-5.1-40.7,7.1-45.8,27.3s7.1,40.7,27.3,45.8s40.7-7.1,45.8-27.3
	c0.3-1.3,0.6-2.6,0.8-4C231.7,99.2,233.2,108.8,233.2,118.4L233.2,118.4z M145.9,164c0-5.7-4.6-10.2-10.2-10.2
	c-5.7,0-10.2,4.6-10.2,10.2s4.6,10.2,10.2,10.2C141.3,174.3,145.9,169.7,145.9,164L145.9,164z M145.9,116.9
	c0-13.4-10.9-24.4-24.3-24.4c-13.4,0-24.4,10.9-24.4,24.3c0,13.4,10.9,24.4,24.3,24.4l0,0C135,141.3,145.9,130.4,145.9,116.9
	L145.9,116.9z M147.4,62.7c0-10.4-8.4-18.9-18.8-18.9c-10.4,0-18.9,8.4-18.9,18.8s8.4,18.9,18.8,18.9l0,0
	C139,81.6,147.4,73.2,147.4,62.7L147.4,62.7z M178.9,151.5c0-7.4-6-13.4-13.4-13.4s-13.4,6-13.4,13.4s6,13.4,13.4,13.4l0,0
	C172.9,164.8,178.9,158.9,178.9,151.5L178.9,151.5z M220.5,142.1c0-7.4-6-13.4-13.3-13.4c-7.4,0-13.4,6-13.4,13.3
	c0,7.4,6,13.4,13.3,13.4l0,0C214.5,155.4,220.5,149.4,220.5,142.1z"/>
<text transform="matrix(1 0 0 1 245.4257 223.8729)" class="st0 st1 st2">Creahaven</text>
</svg>
