<?xml version="1.0" encoding="utf-8"?>
<!-- Generator: Adobe Illustrator 26.1.0, SVG Export Plug-In . SVG Version: 6.00 Build 0)  -->
<svg version="1.1" id="Logo_Orange" xmlns="http://www.w3.org/2000/svg" xmlns:xlink="http://www.w3.org/1999/xlink" x="0px"
	 y="0px" viewBox="0 0 1120 300" style="enable-background:new 0 0 1120 300;" xml:space="preserve">
<style type="text/css">
	.st0{fill:#D98116;}
	.st1{font-family:'Oswald-Bold';}
	.st2{font-size:186.252px;}
</style>
<path class="st0" d="M217.5,239v2.6c0,10.1-7.9,18.4-18,18.8c-2.8,10.7-17.6,19-35.6,19c-18,0-32.9-8.2-35.6-19
	c-10.1-0.4-18-8.7-18-18.8V239L217.5,239z M110.2,230.8h107.2v-10.6H110.2V230.8L110.2,230.8z M256.3,125.6
	c0.1,29.7-14.4,57.6-38.8,74.6V212h-13.3c3.9-3.3,6.2-8.2,6.2-13.3c0-9.9-8-17.9-17.9-17.9s-17.9,8-17.9,17.9l0,0
	c0,5.4,2.4,10.1,6.2,14.1h-70.6v-12.6C96,189.8,85,175.5,78.5,159.1c1.3,0.2,2.7,0.4,4.1,0.4c15.6,0,28.3-12.7,28.3-28.3
	s-12.7-28.3-28.3-28.3c-2.6,0-5.2,0.4-7.7,1.2c11.8-49.4,61.3-79.8,110.7-68.1c14.1,3.4,27.1,10,38.2,19.3
	c-20.2-5.1-40.7,7.1-45.8,27.3c-5.1,20.2,7.1,40.7,27.3,45.8c20.2,5.1,40.7-7.1,45.8-27.3c0.3-1.3,0.6-2.6,0.8-4
	C254.8,106.4,256.3,116,256.3,125.6L256.3,125.6z M169,171.2c0-5.7-4.6-10.2-10.2-10.2c-5.7,0-10.2,4.6-10.2,10.2
	s4.6,10.2,10.2,10.2C164.4,181.5,169,176.9,169,171.2L169,171.2z M169,124.1c0-13.4-10.9-24.4-24.3-24.4
	c-13.4,0-24.4,10.9-24.4,24.3c0,13.4,10.9,24.4,24.3,24.4c0,0,0,0,0,0C158.1,148.5,169,137.6,169,124.1L169,124.1z M170.5,69.9
	c0-10.4-8.4-18.9-18.8-18.9c-10.4,0-18.9,8.4-18.9,18.8c0,10.4,8.4,18.9,18.8,18.9c0,0,0,0,0,0C162.1,88.8,170.5,80.4,170.5,69.9
	L170.5,69.9z M202,158.7c0-7.4-6-13.4-13.4-13.4c-7.4,0-13.4,6-13.4,13.4c0,7.4,6,13.4,13.4,13.4c0,0,0,0,0,0
	C196,172,202,166.1,202,158.7L202,158.7z M243.6,149.3c0-7.4-6-13.4-13.3-13.4c-7.4,0-13.4,6-13.4,13.3c0,7.4,6,13.4,13.3,13.4
	c0,0,0,0,0,0C237.6,162.6,243.6,156.6,243.6,149.3z"/>
<text transform="matrix(1 0 0 1 268.5513 231.0706)" class="st0 st1 st2">Creahaven</text>
</svg>
