<?xml version="1.0" encoding="utf-8"?>
<!-- Generator: Adobe Illustrator 26.1.0, SVG Export Plug-In . SVG Version: 6.00 Build 0)  -->
<svg version="1.1" id="Logo" xmlns="http://www.w3.org/2000/svg" xmlns:xlink="http://www.w3.org/1999/xlink" x="0px" y="0px"
	 viewBox="0 0 1120 300" style="enable-background:new 0 0 1120 300;" xml:space="preserve">
<style type="text/css">
	.st0{font-family:'Oswald-Bold';}
	.st1{font-size:179.6263px;}
</style>
<path d="M202.5,229.6v2.5c0,9.7-7.7,17.7-17.4,18.1c-2.7,10.3-17,18.3-34.3,18.3c-17.4,0-31.7-7.9-34.4-18.3
	c-9.7-0.4-17.4-8.4-17.4-18.1v-2.5L202.5,229.6z M99.1,221.7h103.4v-10.3H99.1V221.7L99.1,221.7z M240,120.2
	c0.1,28.7-13.9,55.6-37.5,72v11.3h-12.8c3.8-3.2,6-7.9,6-12.8c0-9.5-7.7-17.2-17.2-17.2s-17.2,7.7-17.2,17.2l0,0
	c0,5.2,2.4,9.8,6,13.6H99.1v-12.1c-13.8-10.1-24.4-23.9-30.6-39.7c1.3,0.2,2.6,0.4,3.9,0.4c15.1,0,27.3-12.2,27.3-27.3
	c0-15.1-12.2-27.3-27.3-27.3c-2.5,0-5,0.4-7.5,1.2c11.4-47.6,59.2-77,106.8-65.6c13.6,3.2,26.2,9.6,36.8,18.7
	c-19.5-4.9-39.2,6.9-44.1,26.3c-4.9,19.5,6.9,39.2,26.3,44.1c19.5,4.9,39.2-6.9,44.1-26.3c0.3-1.3,0.6-2.5,0.7-3.8
	C238.5,101.7,240,110.9,240,120.2L240,120.2z M155.7,164.2c0-5.5-4.4-9.9-9.9-9.9c-5.5,0-9.9,4.4-9.9,9.9s4.4,9.9,9.9,9.9
	C151.3,174.1,155.7,169.7,155.7,164.2L155.7,164.2z M155.7,118.8c0-13-10.5-23.5-23.5-23.5s-23.5,10.5-23.5,23.5
	c0,13,10.5,23.5,23.5,23.5c0,0,0,0,0,0C145.2,142.3,155.7,131.8,155.7,118.8L155.7,118.8z M157.3,66.5c0-10-8.1-18.2-18.2-18.2
	c-10,0-18.2,8.1-18.2,18.2c0,10,8.1,18.2,18.2,18.2c0,0,0,0,0,0C149.1,84.7,157.2,76.6,157.3,66.5L157.3,66.5z M187.5,152.1
	c0-7.1-5.8-12.9-12.9-12.9s-12.9,5.8-12.9,12.9c0,7.1,5.8,12.9,12.9,12.9c0,0,0,0,0,0C181.8,165,187.5,159.2,187.5,152.1
	L187.5,152.1z M227.7,143c0-7.1-5.8-12.9-12.9-12.9c-7.1,0-12.9,5.8-12.9,12.9c0,7.1,5.8,12.9,12.9,12.9c0,0,0,0,0,0
	C221.9,155.9,227.7,150.2,227.7,143z"/>
<text transform="matrix(1 0 0 1 251.7711 221.9408)" class="st0 st1">Creahaven</text>
</svg>
